<?xml version="1.0" standalone="no"?>
<!DOCTYPE svg PUBLIC "-//W3C//DTD SVG 20010904//EN"
 "http://www.w3.org/TR/2001/REC-SVG-20010904/DTD/svg10.dtd">
<svg version="1.0" xmlns="http://www.w3.org/2000/svg"
 width="2000.000000pt" height="2000.000000pt" viewBox="0 0 2000.000000 2000.000000"
 preserveAspectRatio="xMidYMid meet">
<metadata>
Created by potrace 1.11, written by Peter Selinger 2001-2013
</metadata>
<g transform="translate(0.000000,2000.000000) scale(0.100000,-0.100000)"
fill="#000000" stroke="none">
<path d="M9480 19670 c-1351 -76 -2589 -397 -3775 -980 -2623 -1289 -4537
-3720 -5169 -6565 -291 -1308 -307 -2688 -47 -3994 195 -977 528 -1894 1000
-2756 575 -1048 1361 -2005 2281 -2776 805 -674 1753 -1232 2730 -1607 904
-346 1746 -534 2765 -619 328 -27 1120 -24 1470 5 837 71 1566 221 2335 480
808 273 1556 643 2270 1120 2343 1568 3885 4069 4224 6852 54 444 69 710 69
1185 0 475 -15 740 -69 1185 -150 1229 -540 2428 -1144 3510 -1072 1922 -2763
3422 -4795 4255 -939 385 -1946 617 -3020 695 -190 14 -933 21 -1125 10z
m-672 -1953 c703 -95 1191 -365 1488 -822 325 -501 361 -1223 89 -1770 -161
-323 -423 -574 -787 -755 -209 -104 -359 -149 -716 -216 l-24 -5 24 -32 c14
-18 442 -603 953 -1302 510 -698 932 -1276 938 -1282 7 -10 -72 -13 -389 -13
l-399 1 -915 1257 -916 1257 -637 3 -637 2 0 -1260 0 -1260 -325 0 -325 0 0
3110 0 3111 1228 -4 c1076 -3 1242 -6 1350 -20z m1006 -8178 l-4970 -4970
-190 188 -190 188 4970 4972 4971 4973 190 -190 190 -190 -4971 -4971z m1336
-2414 l0 -2805 1470 0 1470 0 0 -305 0 -305 -1795 0 -1795 0 0 3110 0 3110
325 0 325 0 0 -2805z"/>
<path d="M6880 15886 l0 -1246 818 0 c851 0 921 3 1127 45 120 24 300 87 411
143 461 233 711 681 664 1191 -43 471 -290 798 -735 975 -109 43 -298 89 -455
112 -99 15 -236 18 -972 21 l-858 4 0 -1245z"/>
</g>
</svg>
